<svg width="16" height="16" viewBox="0 0 16 16" fill="none" xmlns="http://www.w3.org/2000/svg">
<g clip-path="url(#clip0_69_28419)">
<path fill-rule="evenodd" clip-rule="evenodd" d="M8 0C3.58172 3.86258e-07 -3.86258e-07 3.58172 0 8C3.86258e-07 12.4183 3.58172 16 8 16C12.4183 16 16 12.4183 16 8C16 3.58172 12.4183 -3.86258e-07 8 0ZM8 2C4.68629 2 2 4.68629 2 8C2 11.3137 4.68629 14 8 14C11.3137 14 14 11.3137 14 8C14 4.68629 11.3137 2 8 2Z" fill="#D4A81B"/>
<path d="M7 12C7 11.4477 7.44772 11 8 11C8.55229 11 9 11.4477 9 12C9 12.5523 8.55229 13 8 13C7.44772 13 7 12.5523 7 12Z" fill="#D4A81B"/>
<path fill-rule="evenodd" clip-rule="evenodd" d="M8 10C7.44772 10 7 9.55229 7 9L7 4C7 3.44772 7.44771 3 8 3C8.55228 3 9 3.44772 9 4V9C9 9.55229 8.55229 10 8 10Z" fill="#D4A81B"/>
</g>
<defs>
<clipPath id="clip0_69_28419">
<rect width="16" height="16" fill="white"/>
</clipPath>
</defs>
</svg>
