<svg width="16" height="16" viewBox="0 0 16 16" fill="none" xmlns="http://www.w3.org/2000/svg">
<g clip-path="url(#clip0_5_11527)">
<path fill-rule="evenodd" clip-rule="evenodd" d="M8 16C12.4183 16 16 12.4183 16 8C16 3.58172 12.4183 0 8 0C3.58172 0 0 3.58172 0 8C0 12.4183 3.58172 16 8 16ZM8 14C11.3137 14 14 11.3137 14 8C14 4.68629 11.3137 2 8 2C4.68629 2 2 4.68629 2 8C2 11.3137 4.68629 14 8 14Z" fill="#189686"/>
<path fill-rule="evenodd" clip-rule="evenodd" d="M11.6247 5.21917C12.056 5.56418 12.1259 6.19347 11.7809 6.62473L7.78087 11.6247C7.60318 11.8468 7.33931 11.9828 7.0553 11.9985C6.77129 12.0142 6.49403 11.9083 6.29289 11.7071L4.29289 9.70714C3.90237 9.31662 3.90237 8.68345 4.29289 8.29293C4.68342 7.90241 5.31658 7.90241 5.70711 8.29293L6.91708 9.5029L10.2191 5.37534C10.5641 4.94408 11.1934 4.87416 11.6247 5.21917Z" fill="#189686"/>
</g>
<defs>
<clipPath id="clip0_5_11527">
<rect width="16" height="16" fill="white"/>
</clipPath>
</defs>
</svg>
