<svg width="16" height="16" viewBox="0 0 16 16" fill="none" xmlns="http://www.w3.org/2000/svg">
<g clip-path="url(#clip0_69_28469)">
<path fill-rule="evenodd" clip-rule="evenodd" d="M8 16C12.4183 16 16 12.4183 16 8C16 3.58172 12.4183 0 8 0C3.58172 0 0 3.58172 0 8C0 12.4183 3.58172 16 8 16ZM8 14C11.3137 14 14 11.3137 14 8C14 4.68629 11.3137 2 8 2C4.68629 2 2 4.68629 2 8C2 11.3137 4.68629 14 8 14Z" fill="#1469AC"/>
<path d="M9 4C9 4.55228 8.55229 5 8 5C7.44772 5 7 4.55228 7 4C7 3.44772 7.44772 3 8 3C8.55229 3 9 3.44772 9 4Z" fill="#1469AC"/>
<path fill-rule="evenodd" clip-rule="evenodd" d="M8 6C8.55229 6 9 6.44772 9 7V12C9 12.5523 8.55229 13 8 13C7.44772 13 7 12.5523 7 12V7C7 6.44772 7.44772 6 8 6Z" fill="#1469AC"/>
</g>
<defs>
<clipPath id="clip0_69_28469">
<rect width="16" height="16" fill="white"/>
</clipPath>
</defs>
</svg>
